<svg width="1027" height="696" viewBox="0 0 1027 696" fill="none" xmlns="http://www.w3.org/2000/svg">
<path d="M381.082 144.191C446.368 87.3377 739.294 195.63 809.734 252.483C880.174 309.336 777.091 554.798 739.294 611.651C709.057 657.133 396.831 546.977 244.498 486.213C92.1652 425.449 299.476 332.799 299.476 332.799C299.476 252.483 244.498 227.519 244.498 227.519M381.082 144.191C315.797 201.044 245.357 92.7522 299.476 412.213C582.093 355.36 233.331 127.045 625.044 412.213M381.082 144.191C582.093 -123.832 412.866 46.7282 549.451 252.483C684.145 370.882 524.5 370 549.451 332.799C625.331 237.442 777.091 103.942 777.091 332.799C744.448 550.286 1000.44 252.483 940.305 451.92C880.174 651.358 1016.76 697.382 625.044 412.213M381.082 144.191L381.082 70.1914L244.498 227.519M625.044 412.213C503.407 312.085 574.362 442.688 625.044 520.505C639.648 579.464 631.917 662.007 484.165 520.505C343.286 377.921 435.201 611.651 299.476 451.92L244.498 227.519" stroke="#1C1C1F" stroke-opacity="0.1"/>
<path d="M826.341 191.572C894.438 246.078 764.728 490.635 696.631 549.444C628.533 608.253 334.524 522.191 266.427 490.635C211.948 465.391 343.892 204.72 416.674 77.541C489.455 -49.6385 600.429 123.44 600.429 123.44C696.631 123.44 726.533 77.541 726.533 77.541M826.341 191.572C758.243 137.067 887.953 78.2582 505.309 123.44C573.406 359.392 846.878 68.2177 505.309 395.251M826.341 191.572C1147.37 359.392 943.079 218.108 696.631 332.139C554.815 444.593 573.406 378.995 600.429 332.139C714.646 395.49 874.549 522.191 600.429 522.191C339.929 494.938 696.631 708.657 457.748 658.455C218.866 608.253 163.739 722.284 505.309 395.251M826.341 191.572L914.976 191.572L726.533 77.541M505.309 395.251C625.24 293.698 468.807 352.937 375.599 395.251C304.979 407.443 206.111 400.988 375.599 277.634C546.383 160.016 266.427 236.754 457.748 123.44L726.533 77.541" stroke="#1C1C1F" stroke-opacity="0.1"/>
<path d="M235.969 46.4231C336.014 -93.7196 488.557 97.001 488.557 97.001C620.794 97.001 661.897 46.4232 661.897 46.4232M235.969 46.4231C192.435 107.406 133.502 196.242 86.9849 279.435M235.969 46.4231C33.5713 86.8854 52.3139 218.624 86.9849 279.435M29.4408 501.624C123.047 536.396 527.188 631.229 620.794 566.426M29.4408 501.624C-90.6126 641.345 198.328 489.769 357.805 396.517M29.4408 501.624C-12.8582 485.911 26.6027 387.427 86.9849 279.435M620.794 566.426C714.4 501.624 892.698 232.139 799.092 172.077M620.794 566.426C860.21 652.548 899.447 442.674 889.139 326.972C799.69 242.542 620.794 124.34 620.794 326.972M799.092 172.077C705.485 112.016 883.783 47.2134 357.805 97.001C451.411 357.003 827.322 36.1496 357.805 396.517M799.092 172.077C1240.38 357.003 959.559 201.318 620.794 326.972M799.092 172.077C799.092 172.077 956.994 136.941 874.117 111.519C791.24 86.0975 697 9.5 661.897 46.4232M357.805 396.517C-111.712 756.883 -35.9352 631.229 292.429 686.549C620.794 741.868 130.476 506.365 488.557 536.396C865.359 536.396 696.092 46.4231 620.794 97.001C583.649 148.632 425.855 450.888 620.794 326.972M357.805 396.517C522.662 284.613 307.63 349.89 179.508 396.517C82.4345 409.951 -53.4678 402.839 179.508 266.911C414.266 137.305 29.4409 221.865 292.429 97.001L661.897 46.4232" stroke="#1C1C1F" stroke-opacity="0.1"/>
</svg>
